{
  "accessors": [
    {
      "bufferView": 2,
      "componentType": 5126,
      "count": 2657,
      "max": [
        160.71000671386719,
        777.30078125,
        188.38121032714844
      ],
      "min": [
        -160.67892456054688,
        -1.9371509552001953e-06,
        -105.00910186767578
      ],
      "type": "VEC3"
    },
    {
      "bufferView": 2,
      "byteOffset": 31884,
      "componentType": 5126,
      "count": 2657,
      "max": [
        1,
        1,
        1
      ],
      "min": [
        -1,
        -1,
        -1
      ],
      "type": "VEC3"
    },
    {
      "bufferView": 1,
      "componentType": 5126,
      "count": 2657,
      "max": [
        0.875,
        1
      ],
      "min": [
        0.125,
        0
      ],
      "type": "VEC2"
    },
    {
      "bufferView": 0,
      "componentType": 5125,
      "count": 15168,
      "max": [
        2656
      ],
      "min": [
        0
      ],
      "type": "SCALAR"
    },
    {
      "bufferView": 2,
      "byteOffset": 63768,
      "componentType": 5126,
      "count": 2657,
      "max": [
        507.95455932617188,
        599.0753173828125,
        40.533744812011719
      ],
      "min": [
        81.753074645996094,
        -14.907831192016602,
        -341.37118530273438
      ],
      "type": "VEC3"
    },
    {
      "bufferView": 2,
      "byteOffset": 95652,
      "componentType": 5126,
      "count": 2657,
      "max": [
        0.99964630603790283,
        0.99987250566482544,
        0.98558193445205688
      ],
      "min": [
        -0.99464094638824463,
        -0.99471825361251831,
        -0.99819576740264893
      ],
      "type": "VEC3"
    },
    {
      "bufferView": 1,
      "byteOffset": 21256,
      "componentType": 5126,
      "count": 2657,
      "max": [
        0.875,
        1
      ],
      "min": [
        0.125,
        0
      ],
      "type": "VEC2"
    },
    {
      "bufferView": 0,
      "byteOffset": 60672,
      "componentType": 5125,
      "count": 15168,
      "max": [
        2656
      ],
      "min": [
        0
      ],
      "type": "SCALAR"
    },
    {
      "bufferView": 2,
      "byteOffset": 127536,
      "componentType": 5126,
      "count": 2657,
      "max": [
        -24.794376373291016,
        291.19125366210938,
        199.14053344726562
      ],
      "min": [
        -611.03167724609375,
        -6.3865747451782227,
        -313.35531616210938
      ],
      "type": "VEC3"
    },
    {
      "bufferView": 2,
      "byteOffset": 159420,
      "componentType": 5126,
      "count": 2657,
      "max": [
        0.99181944131851196,
        0.99718016386032104,
        0.98306864500045776
      ],
      "min": [
        -0.99906033277511597,
        -0.9995884895324707,
        -0.99635660648345947
      ],
      "type": "VEC3"
    },
    {
      "bufferView": 1,
      "byteOffset": 42512,
      "componentType": 5126,
      "count": 2657,
      "max": [
        0.875,
        1
      ],
      "min": [
        0.125,
        0
      ],
      "type": "VEC2"
    },
    {
      "bufferView": 0,
      "byteOffset": 121344,
      "componentType": 5125,
      "count": 15168,
      "max": [
        2656
      ],
      "min": [
        0
      ],
      "type": "SCALAR"
    },
    {
      "bufferView": 2,
      "byteOffset": 191304,
      "componentType": 5126,
      "count": 2657,
      "max": [
        -143.70181274414062,
        350.32095336914062,
        261.700927734375
      ],
      "min": [
        -361.59194946289062,
        0,
        18.495780944824219
      ],
      "type": "VEC3"
    },
    {
      "bufferView": 2,
      "byteOffset": 223188,
      "componentType": 5126,
      "count": 2657,
      "max": [
        0.98558199405670166,
        0.99987250566482544,
        0.9996526837348938
      ],
      "min": [
        -0.99818801879882812,
        -0.99471825361251831,
        -0.99463766813278198
      ],
      "type": "VEC3"
    },
    {
      "bufferView": 1,
      "byteOffset": 63768,
      "componentType": 5126,
      "count": 2657,
      "max": [
        0.875,
        1
      ],
      "min": [
        0.125,
        0
      ],
      "type": "VEC2"
    },
    {
      "bufferView": 0,
      "byteOffset": 182016,
      "componentType": 5125,
      "count": 15168,
      "max": [
        2656
      ],
      "min": [
        0
      ],
      "type": "SCALAR"
    }
  ],
  "asset": {
    "extras": {
      "author": "LittleWhiteElk (https://sketchfab.com/LittleWhiteElk)",
      "license": "CC-BY-4.0 (http://creativecommons.org/licenses/by/4.0/)",
      "source": "https://sketchfab.com/3d-models/gummy-bears-f5463367cb5247bdbaca78667e8e3260",
      "title": "Gummy Bears"
    },
    "generator": "Sketchfab-9.84.0",
    "version": "2.0"
  },
  "bufferViews": [
    {
      "buffer": 0,
      "byteLength": 242688,
      "byteOffset": 0,
      "name": "floatBufferViews",
      "target": 34963
    },
    {
      "buffer": 0,
      "byteLength": 85024,
      "byteOffset": 242688,
      "byteStride": 8,
      "name": "floatBufferViews",
      "target": 34962
    },
    {
      "buffer": 0,
      "byteLength": 255072,
      "byteOffset": 327712,
      "byteStride": 12,
      "name": "floatBufferViews",
      "target": 34962
    }
  ],
  "buffers": [
    {
      "byteLength": 582784,
      "uri": "scene.bin"
    }
  ],
  "materials": [
    {
      "doubleSided": true,
      "emissiveFactor": [
        0,
        0,
        0
      ],
      "name": "material",
      "pbrMetallicRoughness": {
        "baseColorFactor": [
          0.78400000000000003,
          0,
          0,
          1
        ],
        "metallicFactor": 0,
        "roughnessFactor": 0.19999999999999996
      }
    },
    {
      "doubleSided": true,
      "emissiveFactor": [
        0,
        0,
        0
      ],
      "name": "Green",
      "pbrMetallicRoughness": {
        "baseColorFactor": [
          0,
          1,
          0,
          1
        ],
        "metallicFactor": 0,
        "roughnessFactor": 0.19999999999999996
      }
    },
    {
      "doubleSided": true,
      "emissiveFactor": [
        0,
        0,
        0
      ],
      "name": "Purple",
      "pbrMetallicRoughness": {
        "baseColorFactor": [
          0.48512299999999892,
          0.030914999999999911,
          0.68699999999999906,
          1
        ],
        "metallicFactor": 0,
        "roughnessFactor": 0.19999999999999996
      }
    },
    {
      "doubleSided": true,
      "emissiveFactor": [
        0,
        0,
        0
      ],
      "name": "Blue",
      "pbrMetallicRoughness": {
        "baseColorFactor": [
          0,
          0.26923299999999983,
          1,
          1
        ],
        "metallicFactor": 0,
        "roughnessFactor": 0.19999999999999996
      }
    }
  ],
  "meshes": [
    {
      "name": "Gummy_Red_0",
      "primitives": [
        {
          "attributes": {
            "NORMAL": 1,
            "POSITION": 0,
            "TEXCOORD_0": 2
          },
          "indices": 3,
          "material": 0,
          "mode": 4
        }
      ]
    },
    {
      "name": "Gummy1_Green_0",
      "primitives": [
        {
          "attributes": {
            "NORMAL": 5,
            "POSITION": 4,
            "TEXCOORD_0": 6
          },
          "indices": 7,
          "material": 1,
          "mode": 4
        }
      ]
    },
    {
      "name": "Gummy2_Purple_0",
      "primitives": [
        {
          "attributes": {
            "NORMAL": 9,
            "POSITION": 8,
            "TEXCOORD_0": 10
          },
          "indices": 11,
          "material": 2,
          "mode": 4
        }
      ]
    },
    {
      "name": "Gummy3_Blue_0",
      "primitives": [
        {
          "attributes": {
            "NORMAL": 13,
            "POSITION": 12,
            "TEXCOORD_0": 14
          },
          "indices": 15,
          "material": 3,
          "mode": 4
        }
      ]
    }
  ],
  "nodes": [
    {
      "children": [
        1
      ],
      "name": "RootNode (gltf orientation matrix)",
      "rotation": [
        -0.70710678118654746,
        -0,
        -0,
        0.70710678118654757
      ]
    },
    {
      "children": [
        2
      ],
      "name": "RootNode (model correction matrix)"
    },
    {
      "children": [
        3
      ],
      "matrix": [
        1,
        0,
        0,
        0,
        0,
        0,
        1,
        0,
        0,
        -1,
        0,
        0,
        0,
        0,
        0,
        1
      ],
      "name": "212296a030094fdd9838258393ed9241.fbx"
    },
    {
      "children": [
        4,
        6,
        8,
        10
      ],
      "name": "RootNode"
    },
    {
      "children": [
        5
      ],
      "name": "Gummy"
    },
    {
      "mesh": 0,
      "name": "Gummy_Red_0"
    },
    {
      "children": [
        7
      ],
      "name": "Gummy1"
    },
    {
      "mesh": 1,
      "name": "Gummy1_Green_0"
    },
    {
      "children": [
        9
      ],
      "name": "Gummy2"
    },
    {
      "mesh": 2,
      "name": "Gummy2_Purple_0"
    },
    {
      "children": [
        11
      ],
      "name": "Gummy3"
    },
    {
      "mesh": 3,
      "name": "Gummy3_Blue_0"
    }
  ],
  "scene": 0,
  "scenes": [
    {
      "name": "OSG_Scene",
      "nodes": [
        0
      ]
    }
  ]
}

